<?xml version="1.0" standalone="no"?>
<!DOCTYPE svg PUBLIC "-//W3C//DTD SVG 20010904//EN"
 "http://www.w3.org/TR/2001/REC-SVG-20010904/DTD/svg10.dtd">
<svg version="1.0" xmlns="http://www.w3.org/2000/svg"
 width="500.000000pt" height="500.000000pt" viewBox="0 0 500.000000 500.000000"
 preserveAspectRatio="xMidYMid meet">

<g transform="translate(0.000000,500.000000) scale(0.100000,-0.100000)"
fill="#000000" stroke="none">
<path d="M2345 4988 c-474 -21 -940 -192 -1343 -492 -348 -260 -638 -630 -805
-1031 -299 -716 -247 -1542 138 -2211 217 -375 562 -719 930 -924 83 -47 265
-136 295 -145 14 -4 39 -13 55 -21 115 -51 442 -127 617 -144 133 -13 416 -13
539 0 187 19 430 77 614 145 306 114 627 320 868 558 320 316 552 716 662
1142 164 634 73 1327 -248 1875 -315 536 -776 919 -1349 1118 -309 108 -598
147 -973 130z m400 -89 c972 -95 1804 -792 2074 -1739 86 -299 111 -616 76
-936 -90 -813 -599 -1529 -1346 -1896 -101 -49 -266 -115 -312 -123 -34 -7
-37 -5 -37 16 0 13 -7 89 -15 168 -8 80 -13 146 -11 149 2 2 24 -3 49 -12 25
-8 83 -21 129 -27 72 -11 97 -10 178 5 51 9 117 27 144 38 87 37 244 158 205
158 -8 0 -23 -6 -34 -13 -48 -33 -139 -50 -255 -50 -135 1 -202 16 -337 79
-75 35 -93 47 -99 69 -4 17 -2 32 7 41 12 11 29 9 114 -16 177 -53 289 -72
390 -66 197 11 387 90 509 210 40 39 80 86 89 105 20 40 22 50 5 30 -19 -23
-88 -74 -127 -94 -70 -35 -167 -55 -316 -65 -82 -6 -224 -22 -313 -36 -90 -14
-166 -23 -168 -21 -3 3 24 16 60 30 86 33 185 99 219 147 37 53 189 353 174
344 -26 -15 -105 -82 -174 -148 l-73 -69 0 54 c0 30 -7 115 -15 189 -8 74 -19
182 -25 240 -7 58 -18 122 -26 144 -11 28 -12 42 -4 51 8 10 8 19 -1 33 -10
17 -10 25 5 46 16 26 16 28 -2 44 -15 13 -23 46 -37 157 -20 162 -31 208 -56
231 -11 10 -49 20 -100 25 -185 21 -329 66 -389 121 -26 25 -136 109 -158 122
-12 7 -12 4 -1 -15 7 -13 12 -50 11 -82 -1 -34 4 -70 12 -86 8 -15 20 -64 26
-110 18 -130 -6 -246 -84 -400 -45 -90 -103 -181 -115 -181 -5 0 -11 96 -13
218 -4 198 -7 225 -32 316 -15 54 -25 105 -22 112 12 31 38 28 68 -7 l29 -34
-16 40 c-9 22 -29 62 -46 89 -16 27 -28 50 -27 51 2 1 42 21 91 44 51 25 87
48 87 56 0 8 -7 15 -16 15 -8 0 -13 -4 -9 -9 12 -20 -17 -21 -61 -2 -34 15
-68 21 -124 21 -56 0 -90 -6 -124 -21 -44 -19 -73 -18 -61 2 4 5 -1 9 -9 9
-40 0 -8 -30 72 -70 104 -51 98 -46 83 -64 -20 -24 -71 -129 -66 -135 3 -2 12
5 21 17 18 26 37 28 54 7 10 -12 7 -34 -15 -118 -26 -93 -28 -121 -33 -319 -2
-120 -8 -218 -12 -218 -22 0 -120 173 -168 295 -34 87 -45 184 -33 280 7 46
18 99 26 118 8 19 14 59 14 90 -1 30 5 65 12 78 12 23 10 23 -27 -5 -21 -16
-68 -52 -104 -81 -106 -84 -181 -112 -360 -135 -132 -17 -138 -18 -160 -40
-25 -25 -35 -66 -56 -228 -13 -108 -21 -141 -36 -154 -18 -16 -18 -18 -2 -44
15 -21 15 -29 5 -46 -9 -15 -9 -23 -1 -33 9 -11 8 -25 -3 -57 -9 -24 -23 -110
-32 -193 -9 -82 -20 -188 -25 -235 -6 -47 -10 -109 -10 -139 l0 -54 -73 69
c-90 86 -166 148 -172 142 -7 -7 140 -295 172 -338 15 -19 36 -42 47 -50 61
-47 105 -72 169 -96 39 -15 67 -29 60 -31 -6 -2 -66 6 -134 17 -68 12 -207 28
-309 35 -253 20 -343 47 -442 135 -27 23 -48 40 -48 37 0 -21 47 -85 106 -143
163 -161 434 -241 674 -200 85 15 134 28 280 72 54 17 77 3 66 -40 -5 -21 -24
-34 -93 -66 -146 -68 -203 -81 -338 -82 -121 -1 -190 12 -257 48 -79 43 -41
-11 57 -81 122 -86 298 -129 437 -106 40 6 95 19 121 27 27 9 50 14 52 13 1
-2 -3 -69 -11 -149 -7 -80 -13 -156 -14 -169 0 -21 -3 -23 -32 -17 -51 10
-209 73 -322 128 -291 143 -564 352 -762 584 -453 529 -654 1173 -580 1859 37
337 148 665 328 963 394 655 1069 1085 1823 1161 204 21 275 21 490 0z"/>
<path d="M1190 4026 c-234 -101 -326 -192 -394 -392 -34 -103 -38 -124 -24
-124 7 0 62 42 122 93 87 73 123 113 177 192 38 55 103 137 145 183 41 45 69
82 62 81 -7 0 -47 -15 -88 -33z"/>
<path d="M3725 4043 c47 -42 156 -175 210 -257 33 -49 85 -110 119 -140 113
-98 180 -149 183 -139 7 19 -54 191 -90 256 -57 101 -123 159 -262 227 -66 32
-133 62 -150 65 -30 6 -30 6 -10 -12z"/>
<path d="M782 3822 c-76 -39 -148 -115 -187 -197 -55 -116 -58 -138 -51 -365
4 -113 9 -207 12 -209 2 -3 12 6 21 20 38 54 134 146 238 227 130 102 133 104
174 162 40 56 69 120 87 190 19 78 18 79 -17 26 -36 -54 -123 -133 -224 -204
-80 -56 -166 -146 -196 -204 -36 -70 -32 -34 10 90 22 66 47 161 55 211 15 97
42 164 85 215 38 44 54 66 50 66 -2 0 -28 -13 -57 -28z"/>
<path d="M4160 3844 c0 -3 16 -22 34 -42 54 -56 86 -129 102 -233 8 -51 33
-146 55 -212 42 -122 46 -159 10 -89 -32 63 -116 148 -220 222 -101 72 -161
129 -206 195 -15 22 -25 31 -22 20 3 -11 9 -38 13 -60 9 -48 38 -114 83 -184
24 -36 68 -79 145 -138 111 -85 234 -202 273 -258 l21 -29 7 188 c10 244 5
286 -45 390 -41 87 -94 150 -158 189 -45 28 -92 49 -92 41z"/>
<path d="M2436 3566 c-60 -22 -89 -49 -105 -93 -19 -53 -9 -87 30 -104 27 -10
36 -10 58 2 33 18 38 54 15 97 -22 40 -11 65 31 70 47 6 70 -6 94 -49 28 -50
26 -122 -7 -184 -48 -90 -62 -129 -62 -166 0 -53 13 -49 31 9 11 38 23 54 64
82 85 60 132 112 145 159 10 38 9 48 -12 89 -30 62 -81 90 -174 97 -48 4 -81
1 -108 -9z"/>
<path d="M453 3483 c-61 -88 -101 -184 -118 -279 -28 -163 -20 -220 69 -494
25 -74 48 -152 51 -173 10 -53 20 -53 34 1 19 74 64 158 123 232 16 19 32 40
36 45 4 6 31 41 60 79 77 100 148 250 166 351 l7 40 -23 -31 c-13 -17 -48 -53
-78 -80 -209 -187 -245 -237 -285 -397 l-23 -92 2 245 c0 135 -1 304 -3 375
-3 95 0 144 11 183 8 28 14 52 13 52 -1 0 -20 -26 -42 -57z"/>
<path d="M4513 3510 c22 -94 27 -168 17 -268 -14 -151 -16 -266 -8 -422 l8
-135 -25 93 c-13 52 -34 115 -46 140 -22 46 -146 178 -239 256 -25 20 -58 54
-73 74 l-29 37 8 -40 c19 -108 92 -259 178 -370 152 -195 174 -231 205 -329
19 -62 24 -63 36 -6 4 19 29 103 55 185 85 264 95 337 65 480 -27 127 -58 198
-124 285 -26 36 -32 40 -28 20z"/>
<path d="M2451 3004 c-23 -19 -31 -34 -31 -59 0 -25 8 -40 31 -59 36 -30 55
-32 89 -9 34 23 40 33 40 70 0 35 -46 83 -80 83 -10 0 -32 -12 -49 -26z"/>
<path d="M243 2868 c-36 -136 -39 -233 -14 -368 35 -188 57 -231 232 -456 52
-66 101 -130 109 -143 14 -21 15 -15 15 76 1 119 16 203 65 348 48 139 87 325
93 435 l5 85 -33 -72 c-19 -39 -49 -93 -67 -120 -49 -73 -55 -82 -92 -153 -43
-82 -61 -190 -53 -320 7 -107 -5 -97 -28 25 -29 149 -39 179 -115 340 -63 134
-83 202 -89 315 l-6 95 -22 -87z"/>
<path d="M4730 2872 c0 -95 -30 -202 -92 -327 -48 -98 -79 -190 -107 -316 -30
-142 -42 -161 -35 -59 13 186 -16 289 -133 468 -29 45 -64 107 -78 137 -13 30
-26 55 -29 55 -10 0 6 -159 25 -255 11 -55 40 -161 63 -235 56 -173 81 -310
72 -396 -4 -35 -5 -64 -3 -64 2 0 19 21 38 48 18 26 70 94 115 152 142 184
162 223 201 395 26 114 23 285 -5 389 -12 44 -24 81 -27 84 -3 3 -5 -31 -5
-76z"/>
<path d="M2412 2719 c-53 -25 -51 -33 3 -14 22 8 60 14 85 14 25 0 63 -6 85
-14 55 -20 56 -11 2 14 -58 26 -119 26 -175 0z"/>
<path d="M715 2263 c-3 -32 -17 -116 -31 -188 -38 -201 -39 -228 -14 -321 12
-45 38 -116 59 -158 20 -42 34 -76 30 -76 -3 0 -50 66 -104 147 -67 100 -129
178 -196 247 -53 56 -116 124 -138 152 -39 50 -91 146 -91 171 0 6 -5 15 -12
19 -8 5 -10 -18 -5 -92 6 -94 25 -172 63 -251 21 -46 154 -221 200 -264 41
-38 149 -119 159 -119 3 0 18 -8 33 -19 65 -45 230 -151 236 -151 3 0 -3 22
-14 50 -47 120 -72 267 -85 510 -7 119 -33 272 -61 350 -8 25 -17 46 -19 48
-2 2 -6 -23 -10 -55z"/>
<path d="M4253 2254 c-33 -102 -51 -206 -58 -329 -13 -242 -43 -415 -90 -529
-8 -20 -13 -36 -9 -36 5 0 120 73 282 179 115 75 167 123 245 226 91 121 109
153 137 242 25 78 40 261 22 249 -7 -4 -12 -13 -12 -19 0 -25 -52 -121 -91
-171 -22 -28 -85 -96 -138 -152 -67 -69 -129 -147 -196 -247 -96 -145 -128
-181 -85 -96 37 71 69 164 79 229 8 47 6 87 -9 188 -11 70 -24 143 -30 162 -5
19 -10 55 -11 80 -1 25 -4 56 -8 69 -5 20 -10 13 -28 -45z"/>
<path d="M4086 1824 c-82 -97 -160 -250 -225 -437 -65 -187 -113 -287 -168
-355 -19 -24 -33 -45 -31 -47 7 -7 284 50 407 84 175 48 407 237 493 399 34
64 72 171 64 179 -2 2 -13 -11 -25 -30 -33 -54 -160 -168 -237 -213 -38 -22
-109 -57 -158 -78 -109 -47 -167 -81 -274 -164 -46 -35 -85 -62 -87 -60 -2 2
12 22 32 43 37 42 100 126 121 163 27 48 43 115 73 296 17 103 37 206 44 227
8 21 13 39 12 39 -2 0 -20 -20 -41 -46z"/>
<path d="M884 1840 c4 -14 18 -90 32 -170 34 -200 53 -288 74 -337 23 -52 87
-139 145 -198 60 -59 29 -46 -75 33 -98 75 -160 111 -289 169 -52 23 -119 57
-150 75 -66 39 -241 209 -241 234 0 9 -3 15 -6 11 -10 -10 26 -119 64 -192 49
-92 178 -222 302 -303 103 -68 177 -95 355 -132 55 -11 131 -27 169 -36 37 -8
71 -13 73 -10 3 3 -11 24 -30 48 -56 68 -103 168 -169 358 -62 178 -154 356
-229 440 -29 32 -31 33 -25 10z"/>
</g>
</svg>
